<svg width="21" height="22" viewBox="0 0 21 22" fill="none" xmlns="http://www.w3.org/2000/svg">
<path d="M17.9246 13.857C16.781 12.7134 15.4198 11.8668 13.9346 11.3543C15.5253 10.2587 16.5703 8.42519 16.5703 6.35193C16.5703 3.00477 13.8472 0.281616 10.5 0.281616C7.15284 0.281616 4.42969 3.00477 4.42969 6.35193C4.42969 8.42519 5.47472 10.2587 7.06543 11.3543C5.58026 11.8668 4.21903 12.7134 3.07539 13.857C1.09221 15.8402 0 18.477 0 21.2816H1.64062C1.64062 16.3965 5.61492 12.4222 10.5 12.4222C15.3851 12.4222 19.3594 16.3965 19.3594 21.2816H21C21 18.477 19.9078 15.8402 17.9246 13.857ZM10.5 10.7816C8.05748 10.7816 6.07031 8.79449 6.07031 6.35193C6.07031 3.90937 8.05748 1.92224 10.5 1.92224C12.9425 1.92224 14.9297 3.90937 14.9297 6.35193C14.9297 8.79449 12.9425 10.7816 10.5 10.7816Z" fill="white"/>
</svg>
