<svg width="21" height="22" viewBox="0 0 21 22" fill="none" xmlns="http://www.w3.org/2000/svg">
<g clip-path="url(#clip0_69:344)">
<path d="M16.5965 13.2903C16.1666 12.8426 15.648 12.6033 15.0984 12.6033C14.5532 12.6033 14.0302 12.8382 13.5826 13.2859L12.182 14.682C12.0668 14.6199 11.9515 14.5623 11.8407 14.5047C11.6812 14.4249 11.5305 14.3496 11.402 14.2698C10.09 13.4365 8.89776 12.3507 7.75426 10.9457C7.20023 10.2454 6.82793 9.65589 6.55756 9.05754C6.921 8.72513 7.25785 8.37941 7.58583 8.047C7.70993 7.9229 7.83404 7.79436 7.95814 7.67026C8.8889 6.7395 8.8889 5.53395 7.95814 4.60318L6.74815 3.3932C6.61075 3.2558 6.46892 3.11397 6.33595 2.97214C6.07002 2.69734 5.79079 2.41368 5.5027 2.14775C5.07278 1.72226 4.55864 1.49622 4.01792 1.49622C3.47719 1.49622 2.95419 1.72226 2.51097 2.14775C2.50654 2.15218 2.50654 2.15218 2.50211 2.15661L0.995161 3.67686C0.42784 4.24418 0.10429 4.9356 0.0333745 5.73783C-0.0729981 7.03203 0.308171 8.23758 0.600695 9.02652C1.31871 10.9634 2.3913 12.7584 3.99132 14.682C5.93262 17 8.26839 18.8305 10.9366 20.1203C11.956 20.6034 13.3167 21.1752 14.8369 21.2727C14.93 21.2771 15.0275 21.2815 15.1161 21.2815C16.14 21.2815 16.9998 20.9137 17.6735 20.1824C17.6779 20.1735 17.6868 20.1691 17.6912 20.1602C17.9217 19.881 18.1876 19.6283 18.4669 19.358C18.6575 19.1762 18.8525 18.9857 19.0431 18.7862C19.4818 18.3297 19.7123 17.7978 19.7123 17.2527C19.7123 16.7031 19.4774 16.1756 19.0298 15.7324L16.5965 13.2903ZM18.1832 17.9574C18.1788 17.9574 18.1788 17.9618 18.1832 17.9574C18.0104 18.1435 17.8331 18.312 17.6425 18.4981C17.3544 18.7729 17.0619 19.061 16.7871 19.3846C16.3394 19.8632 15.812 20.0893 15.1206 20.0893C15.0541 20.0893 14.9832 20.0893 14.9167 20.0848C13.6003 20.0006 12.377 19.4865 11.4596 19.0477C8.95095 17.8333 6.74815 16.1092 4.91765 13.9241C3.40627 12.1025 2.39573 10.4182 1.72647 8.60989C1.31428 7.50627 1.16358 6.64643 1.23007 5.83534C1.27439 5.31677 1.47384 4.88685 1.84171 4.51897L3.35309 3.00759C3.57027 2.80371 3.80074 2.69291 4.02678 2.69291C4.30601 2.69291 4.53205 2.86133 4.67388 3.00316C4.67831 3.00759 4.68275 3.01203 4.68718 3.01646C4.95754 3.26909 5.21461 3.53059 5.48497 3.80982C5.62237 3.95165 5.7642 4.09348 5.90603 4.23974L7.11602 5.44973C7.58583 5.91955 7.58583 6.3539 7.11602 6.82371C6.98749 6.95225 6.86338 7.08078 6.73485 7.20488C6.36255 7.58605 6.00797 7.94063 5.62237 8.28634C5.61351 8.2952 5.60464 8.29964 5.60021 8.3085C5.21904 8.68967 5.28996 9.06197 5.36974 9.31461C5.37417 9.3279 5.3786 9.3412 5.38303 9.3545C5.69772 10.1168 6.14094 10.8349 6.81463 11.6903L6.81906 11.6947C8.04235 13.2016 9.33212 14.3762 10.7549 15.2759C10.9366 15.3911 11.1227 15.4842 11.3 15.5729C11.4596 15.6526 11.6103 15.728 11.7388 15.8078C11.7565 15.8166 11.7743 15.8299 11.792 15.8388C11.9427 15.9141 12.0845 15.9496 12.2308 15.9496C12.5986 15.9496 12.8291 15.7191 12.9045 15.6438L14.4203 14.128C14.571 13.9773 14.8103 13.7956 15.0895 13.7956C15.3643 13.7956 15.5904 13.9684 15.7278 14.1191C15.7322 14.1235 15.7322 14.1235 15.7366 14.128L18.1788 16.5701C18.6353 17.0222 18.6353 17.4876 18.1832 17.9574Z" fill="white"/>
<path d="M11.349 5.27694C12.5102 5.47196 13.5651 6.02155 14.4072 6.86367C15.2493 7.70578 15.7945 8.76064 15.9939 9.92188C16.0427 10.2144 16.2953 10.4183 16.5834 10.4183C16.6188 10.4183 16.6499 10.4139 16.6853 10.4094C17.0133 10.3562 17.2305 10.046 17.1773 9.718C16.938 8.31299 16.2731 7.03209 15.2582 6.01712C14.2432 5.00214 12.9623 4.33731 11.5573 4.09798C11.2293 4.04479 10.9235 4.26197 10.8659 4.58552C10.8082 4.90907 11.021 5.22375 11.349 5.27694Z" fill="white"/>
<path d="M20.9753 9.5451C20.5808 7.23149 19.4905 5.1262 17.8151 3.45083C16.1398 1.77546 14.0345 0.685143 11.7209 0.290677C11.3973 0.233059 11.0915 0.454668 11.0339 0.778219C10.9807 1.1062 11.1979 1.41202 11.5259 1.46964C13.5913 1.81978 15.4749 2.7993 16.973 4.29295C18.4711 5.79103 19.4462 7.67471 19.7963 9.74012C19.8451 10.0326 20.0977 10.2365 20.3858 10.2365C20.4213 10.2365 20.4523 10.2321 20.4878 10.2277C20.8113 10.1789 21.0329 9.86865 20.9753 9.5451Z" fill="white"/>
</g>
<defs>
<clipPath id="clip0_69:344">
<rect width="21" height="21" fill="white" transform="translate(0 0.281555)"/>
</clipPath>
</defs>
</svg>
