<svg width="47" height="48" viewBox="0 0 47 48" fill="none" xmlns="http://www.w3.org/2000/svg">
<g clip-path="url(#clip0_142_14)">
<path d="M45.4981 43.1345L34.312 31.5004C37.1881 28.0814 38.764 23.7796 38.764 19.3012C38.764 8.83785 30.2511 0.324951 19.7878 0.324951C9.32443 0.324951 0.811523 8.83785 0.811523 19.3012C0.811523 29.7645 9.32443 38.2774 19.7878 38.2774C23.7158 38.2774 27.4591 37.0926 30.6595 34.8435L41.9305 46.5659C42.4016 47.0552 43.0353 47.325 43.7143 47.325C44.357 47.325 44.9667 47.0799 45.4296 46.6344C46.4131 45.688 46.4444 44.1188 45.4981 43.1345ZM19.7878 5.27527C27.5218 5.27527 33.8137 11.5671 33.8137 19.3012C33.8137 27.0352 27.5218 33.3271 19.7878 33.3271C12.0537 33.3271 5.76184 27.0352 5.76184 19.3012C5.76184 11.5671 12.0537 5.27527 19.7878 5.27527Z" fill="white"/>
<path d="M27.3108 17.0973V21.3213H21.9828V27.1293H17.2308V21.3213H11.9028V17.0973H17.2308V11.2893H21.9828V17.0973H27.3108Z" fill="white"/>
</g>
<defs>
<clipPath id="clip0_142_14">
<rect width="47" height="47" fill="white" transform="translate(0 0.324951)"/>
</clipPath>
</defs>
</svg>
