<svg width="17" height="17" viewBox="0 0 17 17" fill="none" xmlns="http://www.w3.org/2000/svg">
<circle cx="8.98633" cy="8.28162" r="8" fill="white"/>
<g clip-path="url(#clip0_69:333)">
<path d="M4.10171 8.66625C4.02479 8.58933 3.98633 8.47395 3.98633 8.39702C3.98633 8.3201 4.02479 8.20472 4.10171 8.12779L4.64017 7.58933C4.79402 7.43549 5.02479 7.43549 5.17864 7.58933L5.2171 7.62779L7.33248 9.89702C7.4094 9.97395 7.52479 9.97395 7.60171 9.89702L12.7556 4.55087H12.794C12.9479 4.39702 13.1786 4.39702 13.3325 4.55087L13.8709 5.08933C14.0248 5.24318 14.0248 5.47395 13.8709 5.62779L7.7171 12.0124C7.64017 12.0893 7.56325 12.1278 7.44787 12.1278C7.33248 12.1278 7.25556 12.0893 7.17864 12.0124L4.17864 8.78164L4.10171 8.66625Z" fill="#FF5757"/>
</g>
<defs>
<clipPath id="clip0_69:333">
<rect width="10" height="10" fill="white" transform="translate(3.98633 3.28162)"/>
</clipPath>
</defs>
</svg>
